<svg width="32" height="33" viewBox="0 0 32 33" fill="none" xmlns="http://www.w3.org/2000/svg">
<path d="M4.8 2.85233C3.91788 2.85233 3.2 2.13346 3.2 1.25012C3.2 0.95477 2.96163 0.716064 2.66669 0.716064C2.37175 0.716064 2.13331 0.95477 2.13331 1.25012C2.13331 2.13346 1.41544 2.85233 0.533312 2.85233C0.238375 2.85233 0 3.09104 0 3.38639C0 3.68173 0.238438 3.9205 0.533312 3.9205C1.41544 3.9205 2.13331 4.63937 2.13331 5.52272C2.13331 5.81807 2.37169 6.05677 2.66663 6.05677C2.96156 6.05677 3.19994 5.81807 3.19994 5.52272C3.19994 4.63937 3.91781 3.9205 4.79994 3.9205C5.09488 3.9205 5.33325 3.6818 5.33325 3.38645C5.33325 3.0911 5.09494 2.85233 4.8 2.85233ZM2.66669 3.92213C2.51469 3.71916 2.33444 3.53866 2.13175 3.38645C2.33444 3.23424 2.51469 3.05374 2.66669 2.85077C2.81869 3.05374 2.99894 3.23424 3.20162 3.38645C2.99894 3.53866 2.81869 3.71916 2.66669 3.92213Z" fill="#927DFA"/>
<path d="M29.8659 9.26122H29.3325V8.72717C29.3325 8.43182 29.0942 8.19312 28.7992 8.19312C28.5043 8.19312 28.2659 8.43182 28.2659 8.72717V9.26122H27.7325C27.4376 9.26122 27.1992 9.49992 27.1992 9.79527C27.1992 10.0906 27.4376 10.3293 27.7325 10.3293H28.2658V10.8634C28.2658 11.1587 28.5042 11.3974 28.7992 11.3974C29.0941 11.3974 29.3325 11.1587 29.3325 10.8634V10.3293H29.8658C30.1607 10.3293 30.3991 10.0906 30.3991 9.79527C30.3991 9.49992 30.1608 9.26122 29.8659 9.26122Z" fill="#927DFA"/>
<path d="M3.73253 24.7485C4.02707 24.7485 4.26584 24.5096 4.26584 24.2149C4.26584 23.9202 4.02707 23.6813 3.73253 23.6813C3.43799 23.6813 3.19922 23.9202 3.19922 24.2149C3.19922 24.5096 3.43799 24.7485 3.73253 24.7485Z" fill="#927DFA"/>
<path d="M1.06652 15.1351C1.36106 15.1351 1.59983 14.8962 1.59983 14.6015C1.59983 14.3068 1.36106 14.0679 1.06652 14.0679C0.771975 14.0679 0.533203 14.3068 0.533203 14.6015C0.533203 14.8962 0.771975 15.1351 1.06652 15.1351Z" fill="#927DFA"/>
<path d="M27.2013 20.4758C27.4958 20.4758 27.7346 20.2369 27.7346 19.9422C27.7346 19.6475 27.4958 19.4086 27.2013 19.4086C26.9067 19.4086 26.668 19.6475 26.668 19.9422C26.668 20.2369 26.9067 20.4758 27.2013 20.4758Z" fill="#927DFA"/>
<path d="M30.9337 31.6914C31.2282 31.6914 31.467 31.4525 31.467 31.1578C31.467 30.8631 31.2282 30.6241 30.9337 30.6241C30.6392 30.6241 30.4004 30.8631 30.4004 31.1578C30.4004 31.4525 30.6392 31.6914 30.9337 31.6914Z" fill="#927DFA"/>
<path d="M17.067 30.09C17.067 29.501 16.5886 29.0219 16.0003 29.0219C15.412 29.0219 14.9336 29.5009 14.9336 30.09C14.9336 30.6791 15.412 31.1582 16.0003 31.1582C16.5885 31.1582 17.067 30.6791 17.067 30.09Z" fill="#927DFA"/>
<path d="M22.9544 0.716064H9.04616C7.88134 0.716064 6.93359 1.66513 6.93359 2.83156V3.9205H25.0669V2.83149C25.067 1.66513 24.1192 0.716064 22.9544 0.716064ZM13.867 2.85233H13.3336C13.0392 2.85233 12.8003 2.61307 12.8003 2.31828C12.8003 2.0235 13.0392 1.78423 13.3336 1.78423H13.8669C14.1613 1.78423 14.4002 2.0235 14.4002 2.31828C14.4003 2.61307 14.1613 2.85233 13.867 2.85233ZM18.1336 2.85233H15.4669C15.1725 2.85233 14.9336 2.61307 14.9336 2.31828C14.9336 2.0235 15.1725 1.78423 15.4669 1.78423H18.1336C18.428 1.78423 18.6669 2.0235 18.6669 2.31828C18.667 2.61307 18.428 2.85233 18.1336 2.85233Z" fill="#927DFA"/>
<path d="M18.1336 30.09C18.1336 31.2682 17.1768 32.2263 16.0003 32.2263C14.8238 32.2263 13.867 31.2681 13.867 30.09C13.867 29.4491 14.156 28.8798 14.604 28.4878H6.93359V30.6449C6.93359 31.8113 7.88134 32.7603 9.04616 32.7603H22.9544C24.1192 32.7603 25.0669 31.8113 25.0669 30.6449V28.4878H17.3965C17.8445 28.8798 18.1336 29.4491 18.1336 30.09Z" fill="#927DFA"/>
<path d="M16.5335 12.4656H15.4668V13.5329H16.5335V12.4656Z" fill="#927DFA"/>
<path d="M12.2659 12.4656H11.1992V13.5329H12.2659V12.4656Z" fill="#927DFA"/>
<path d="M12.2659 8.19312H11.1992V9.26043H12.2659V8.19312Z" fill="#927DFA"/>
<path d="M12.2659 23.1471H11.1992V24.2144H12.2659V23.1471Z" fill="#927DFA"/>
<path d="M16.5335 8.19312H15.4668V9.26043H16.5335V8.19312Z" fill="#927DFA"/>
<path d="M20.7991 8.19312H19.7324V9.26043H20.7991V8.19312Z" fill="#927DFA"/>
<path d="M6.9337 5.52271C6.63933 5.52271 6.40039 5.76197 6.40039 6.05676V6.59081C6.40039 6.88559 6.63933 7.12486 6.9337 7.12486V7.65891C6.63933 7.65891 6.40039 7.89818 6.40039 8.19297V8.72702C6.40039 9.0218 6.63933 9.26107 6.9337 9.26107V9.79512C6.63933 9.79512 6.40039 10.0344 6.40039 10.3292V10.8632C6.40039 11.158 6.63933 11.3973 6.9337 11.3973V27.4195H25.067V4.9884H6.9337V5.52271ZM17.6004 24.7493C17.6004 25.0447 17.362 25.2834 17.0671 25.2834H14.9337C14.6388 25.2834 14.4004 25.0447 14.4004 24.7493V22.6131C14.4004 22.3177 14.6388 22.079 14.9337 22.079H17.067C17.362 22.079 17.6003 22.3177 17.6003 22.6131V24.7493H17.6004ZM21.8671 24.7493C21.8671 25.0447 21.6287 25.2834 21.3338 25.2834H19.2005C18.9055 25.2834 18.6671 25.0447 18.6671 24.7493V22.6131C18.6671 22.3177 18.9055 22.079 19.2005 22.079H21.3337C21.6286 22.079 21.867 22.3177 21.867 22.6131V24.7493H21.8671ZM18.6671 7.65898C18.6671 7.36363 18.9055 7.12492 19.2004 7.12492H21.3337C21.6286 7.12492 21.867 7.36363 21.867 7.65898V9.79525C21.867 10.0906 21.6286 10.3293 21.3337 10.3293H19.2004C18.9055 10.3293 18.6671 10.0906 18.6671 9.79525V7.65898ZM14.4004 7.65898C14.4004 7.36363 14.6388 7.12492 14.9337 7.12492H17.067C17.362 7.12492 17.6003 7.36363 17.6003 7.65898V9.79525C17.6003 10.0906 17.362 10.3293 17.067 10.3293H14.9337C14.6388 10.3293 14.4004 10.0906 14.4004 9.79525V7.65898ZM14.4004 11.9316C14.4004 11.6362 14.6388 11.3975 14.9337 11.3975H17.067C17.362 11.3975 17.6003 11.6362 17.6003 11.9316V14.0679C17.6003 14.3632 17.362 14.6019 17.067 14.6019H14.9337C14.6388 14.6019 14.4004 14.3632 14.4004 14.0679V11.9316ZM10.1337 7.65898C10.1337 7.36363 10.3721 7.12492 10.667 7.12492H12.8003C13.0953 7.12492 13.3336 7.36363 13.3336 7.65898V9.79525C13.3336 10.0906 13.0953 10.3293 12.8003 10.3293H10.667C10.3721 10.3293 10.1337 10.0906 10.1337 9.79525V7.65898ZM10.1337 11.9316C10.1337 11.6362 10.3721 11.3975 10.667 11.3975H12.8003C13.0953 11.3975 13.3336 11.6362 13.3336 11.9316V14.0679C13.3336 14.3632 13.0953 14.6019 12.8003 14.6019H10.667C10.3721 14.6019 10.1337 14.3632 10.1337 14.0679V11.9316ZM10.6671 16.2042H21.8671C22.162 16.2042 22.4004 16.4429 22.4004 16.7382C22.4004 17.0336 22.162 17.2723 21.8671 17.2723H10.6671C10.3721 17.2723 10.1338 17.0336 10.1338 16.7382C10.1338 16.4429 10.3721 16.2042 10.6671 16.2042ZM10.6671 19.4086H21.8671C22.162 19.4086 22.4004 19.6473 22.4004 19.9427C22.4004 20.238 22.162 20.4767 21.8671 20.4767H10.6671C10.3721 20.4767 10.1338 20.238 10.1338 19.9427C10.1338 19.6473 10.3721 19.4086 10.6671 19.4086ZM10.1337 22.6131C10.1337 22.3177 10.3721 22.079 10.667 22.079H12.8003C13.0953 22.079 13.3336 22.3177 13.3336 22.6131V24.7493C13.3336 25.0447 13.0953 25.2834 12.8003 25.2834H10.667C10.3721 25.2834 10.1337 25.0447 10.1337 24.7493V22.6131Z" fill="#927DFA"/>
<path d="M16.5335 23.1471H15.4668V24.2144H16.5335V23.1471Z" fill="#927DFA"/>
<path d="M20.7991 23.1471H19.7324V24.2144H20.7991V23.1471Z" fill="#927DFA"/>
</svg>
