<svg width="42" height="37" viewBox="0 0 42 37" fill="none" xmlns="http://www.w3.org/2000/svg">
<path fillRule="evenodd" clipRule="evenodd" d="M6.93853 23.3799L8.38239 22.5464C10.0081 21.0852 11.7469 20.1502 13.5989 19.7412C15.4726 19.3246 17.448 19.4517 19.5252 20.1227C19.5422 20.1286 19.5598 20.1345 19.5768 20.1403C20.9031 20.7154 22.4413 21.2279 24.1915 21.6779C26.1185 22.1596 28.0694 22.5397 30.0362 22.8165C30.4084 22.8271 30.7715 22.9343 31.09 23.1275L37.7958 18.4031C38.7698 17.7165 39.7532 17.3878 40.491 17.4231C40.8508 17.4244 41.2005 17.5417 41.4885 17.7576C41.6355 17.8761 41.7563 18.0238 41.8431 18.1915C41.93 18.3592 41.9811 18.5432 41.9931 18.7317C42.0429 19.2835 41.825 20.0112 41.2348 20.9033L37.273 26.8718C37.1296 27.0904 36.961 27.2913 36.7707 27.4704C36.5817 27.6518 36.3713 27.8094 36.1443 27.9398L25.88 33.9377C25.4989 34.1616 25.0789 34.311 24.6422 34.3779C24.2063 34.436 23.7635 34.4121 23.3364 34.3075L13.4344 31.8778C13.1779 31.8123 12.9119 31.7925 12.6485 31.8191C12.3866 31.847 12.132 31.9226 11.8972 32.0422L11.48 32.2417L11.9201 33.0985C11.9544 33.1654 11.9751 33.2383 11.9811 33.3132C11.9872 33.388 11.9784 33.4633 11.9552 33.5348C11.9321 33.6062 11.895 33.6724 11.8463 33.7295C11.7975 33.7865 11.7379 33.8334 11.671 33.8673L6.49881 36.5317C6.3632 36.5996 6.20632 36.6112 6.06224 36.564C5.91816 36.5167 5.79851 36.4144 5.72929 36.2794L0.0627067 25.2285C0.0284768 25.1617 0.00778043 25.0887 0.00180724 25.0138C-0.00416595 24.9389 0.00470186 24.8636 0.0279009 24.7921C0.0510999 24.7207 0.0881727 24.6545 0.136988 24.5975C0.185803 24.5404 0.245398 24.4936 0.312347 24.4597L5.4849 21.8012C5.55151 21.7664 5.62435 21.7451 5.6992 21.7387C5.77406 21.7322 5.84944 21.7407 5.921 21.7636C5.99256 21.7866 6.05888 21.8235 6.11611 21.8722C6.17333 21.9209 6.22034 21.9806 6.25442 22.0476L6.93853 23.3799ZM32.2617 16.3667H25.7562V16.4371C25.7565 16.6747 25.8507 16.9026 26.0182 17.071C26.101 17.1548 26.1995 17.2213 26.3082 17.2666C26.4168 17.3119 26.5334 17.3352 26.6511 17.335H31.3661C31.4837 17.3352 31.6002 17.312 31.7088 17.2667C31.8173 17.2213 31.9158 17.1548 31.9984 17.071C32.0817 16.9878 32.1479 16.889 32.193 16.7803C32.2382 16.6715 32.2615 16.5549 32.2616 16.4371V16.3667H32.2617ZM32.519 18.1273C32.7946 17.9403 33.02 17.6884 33.1755 17.3936C33.3309 17.0989 33.4116 16.7704 33.4104 16.4371V14.653C33.4068 14.3887 33.4593 14.1266 33.5646 13.8842C33.673 13.6452 33.8324 13.4328 34.0316 13.2621C34.8276 12.5501 35.4649 11.6783 35.9021 10.7033C36.4167 9.55172 36.6354 8.28947 36.5384 7.03156C36.4413 5.77364 36.0315 4.56004 35.3463 3.50127C34.6611 2.44251 33.7222 1.57223 32.6153 0.96969C31.5083 0.367155 30.2684 0.0515137 29.0085 0.0515137C27.7486 0.0515137 26.5087 0.367155 25.4017 0.96969C24.2948 1.57223 23.3559 2.44251 22.6707 3.50127C21.9855 4.56004 21.5757 5.77364 21.4787 7.03156C21.3816 8.28947 21.6003 9.55172 22.1149 10.7033C22.5522 11.6783 23.1895 12.5501 23.9854 13.2621C24.1846 13.4327 24.3438 13.6451 24.4518 13.8842C24.5575 14.1266 24.6104 14.3886 24.6071 14.653V16.4371C24.6058 16.7704 24.6863 17.0989 24.8417 17.3936C24.997 17.6884 25.2224 17.9403 25.498 18.1273C25.5778 18.947 25.9595 19.7076 26.5687 20.2609C27.1779 20.8142 27.9709 21.1206 28.7934 21.1204H29.2235C30.0459 21.1206 30.839 20.8142 31.4482 20.2609C32.0574 19.7076 32.4391 18.947 32.5189 18.1273H32.519ZM22.6044 7.60459C22.6072 6.00495 23.2065 4.46402 24.2849 3.28391C25.3633 2.10379 26.843 1.36961 28.434 1.22528V3.39088C28.4337 3.48607 28.4571 3.57982 28.5021 3.66369C28.5471 3.74755 28.6122 3.8189 28.6915 3.87129C28.7709 3.92368 28.862 3.95548 28.9567 3.96381C29.0514 3.97215 29.1467 3.95676 29.234 3.91903C29.2633 3.9132 29.2972 3.90145 29.333 3.89553C29.3776 3.88853 29.4226 3.88463 29.4678 3.88387C29.6716 3.88597 29.8663 3.96851 30.0097 4.11355C30.153 4.2586 30.2334 4.45444 30.2334 4.65851C30.2334 4.86259 30.153 5.05843 30.0097 5.20347C29.8663 5.34852 29.6716 5.43106 29.4678 5.43316C29.4226 5.43241 29.3776 5.42849 29.333 5.42141C29.2882 5.41672 29.2445 5.40485 29.2035 5.38625C29.0604 5.33509 28.9028 5.34279 28.7653 5.40769C28.6278 5.47258 28.5215 5.58938 28.4698 5.73252C28.4472 5.79456 28.4357 5.86011 28.4358 5.92615H28.434V7.60459H27.4107C27.3811 7.11537 27.1661 6.65591 26.8097 6.32001C26.4533 5.9841 25.9823 5.79706 25.4928 5.79706C25.0034 5.79706 24.5324 5.9841 24.176 6.32001C23.8196 6.65591 23.6046 7.11537 23.5749 7.60459H22.6044ZM35.3121 8.75471C35.2215 9.26447 35.0686 9.76113 34.8568 10.2334C34.4871 11.0599 33.9461 11.7981 33.2697 12.399C32.9491 12.6795 32.6931 13.0262 32.5191 13.4152C32.3451 13.8042 32.2573 14.2264 32.2617 14.6526V15.2162H29.5826V12.9687H29.5809C29.5806 12.9007 29.5689 12.8332 29.5463 12.7691C29.5205 12.6985 29.4811 12.6337 29.4303 12.5784C29.3795 12.523 29.3183 12.4783 29.2502 12.4467C29.1821 12.415 29.1085 12.3972 29.0335 12.3941C28.9585 12.391 28.8836 12.4028 28.8131 12.4288C28.7763 12.4405 28.7329 12.4523 28.6837 12.4639C28.639 12.471 28.594 12.4749 28.5488 12.4757C28.3956 12.475 28.2461 12.429 28.119 12.3434C27.9919 12.2578 27.8929 12.1365 27.8345 11.9947C27.7761 11.8529 27.7609 11.697 27.7908 11.5466C27.8207 11.3961 27.8944 11.2579 28.0026 11.1493C28.149 11.007 28.3448 10.927 28.5488 10.9264C28.594 10.9271 28.639 10.931 28.6837 10.9381C28.7174 10.9424 28.7506 10.9502 28.7827 10.9615C28.87 10.9993 28.9652 11.0147 29.0599 11.0063C29.1546 10.998 29.2458 10.9662 29.3251 10.9138C29.4045 10.8614 29.4696 10.7901 29.5145 10.7062C29.5595 10.6223 29.5829 10.5286 29.5826 10.4334V8.75495H30.6053C30.635 9.24426 30.85 9.70379 31.2065 10.0398C31.5629 10.3757 32.034 10.5628 32.5235 10.5628C33.0131 10.5628 33.4841 10.3757 33.8406 10.0398C34.1971 9.70379 34.4121 9.24426 34.4417 8.75495L35.3121 8.75471ZM19.1096 26.4137C18.9589 26.3995 18.8199 26.3259 18.7234 26.209C18.6268 26.0922 18.5805 25.9417 18.5948 25.7908C18.609 25.6398 18.6825 25.5007 18.7992 25.404C18.9158 25.3073 19.0661 25.2609 19.2169 25.2752C21.7422 25.5216 25.2047 25.6978 27.542 25.821C28.7222 25.8797 29.6257 25.9266 30.059 25.9795C30.3141 25.9573 30.5515 25.8401 30.7243 25.6509C30.8997 25.4569 30.9931 25.2023 30.985 24.9407C30.9778 24.6785 30.8677 24.4297 30.6785 24.2482C30.4917 24.065 30.2409 23.9619 29.9794 23.9607C29.9525 23.9617 29.9255 23.9597 29.8991 23.9548C27.883 23.6753 25.8834 23.2874 23.9089 22.7928C22.2866 22.3875 20.6977 21.8578 19.1566 21.2083C17.2811 20.6097 15.5106 20.4923 13.845 20.8561C12.1706 21.2258 10.5885 22.0866 9.0985 23.4384C9.06974 23.4663 9.03717 23.49 9.00178 23.5088H9.00235L7.46283 24.4067L10.9569 31.2203L11.3999 31.0091C11.7548 30.8314 12.1384 30.7182 12.5328 30.6746C12.9255 30.6401 13.3212 30.6698 13.7043 30.7626L23.6052 33.1923C23.8913 33.2629 24.1882 33.2788 24.4802 33.2392C24.7699 33.193 25.0485 33.0935 25.3019 32.9457L35.5648 26.9479C35.7163 26.8606 35.8573 26.7563 35.985 26.6368C36.111 26.5175 36.2223 26.3835 36.3167 26.2378L40.2786 20.2694C40.7129 19.6122 40.8805 19.1426 40.8518 18.8374C40.8518 18.8034 40.8448 18.7697 40.8315 18.7385C40.8181 18.7072 40.7985 18.679 40.7739 18.6555C40.6754 18.5943 40.561 18.5637 40.4451 18.5674C39.9405 18.544 39.2185 18.8022 38.4549 19.3421L31.8836 23.9668C32.0507 24.285 32.1358 24.6401 32.131 24.9996C32.1262 25.3592 32.0318 25.7118 31.8563 26.0255C31.6808 26.3392 31.4298 26.6041 31.1261 26.7959C30.8224 26.9878 30.4756 27.1006 30.1173 27.1241C30.0252 27.1287 29.9333 27.1127 29.8483 27.0772C29.8254 27.0654 28.89 27.0361 27.484 26.9657C25.1433 26.8424 21.6772 26.6663 19.1097 26.414L19.1096 26.4137Z" fill="white" fill-opacity="0.5"/>
</svg>
