<svg width="39" height="36" viewBox="0 0 39 36" fill="none" xmlns="http://www.w3.org/2000/svg">
<path d="M13.7114 9.32654L10.3203 13.3686H12.3441V21.6177H15.0788V13.3686H17.1026L13.7114 9.32654Z" fill="white" fill-opacity="0.5"/>
<path d="M7.64062 23.236L18.0465 29.6703C18.3826 29.8782 18.7775 29.9892 19.1814 29.9892C19.5853 29.9892 19.9802 29.8782 20.3163 29.6703L30.7222 23.236C30.6659 23.1323 30.5801 23.0449 30.474 22.9834C30.3679 22.9218 30.2456 22.8885 30.1206 22.887H8.24228C8.11719 22.8885 7.99494 22.9218 7.88886 22.9834C7.78277 23.0449 7.69691 23.1323 7.64062 23.236Z" fill="white" fill-opacity="0.5"/>
<path d="M21.9163 8.92688V17.176H19.8926L23.2837 21.2181L26.6748 17.176H24.6511V8.92688H21.9163Z" fill="white" fill-opacity="0.5"/>
<path d="M38.324 12.7342C38.3211 11.0521 37.5999 9.43966 36.3183 8.25023C35.0368 7.06081 33.2994 6.3914 31.487 6.38872C30.7158 6.3865 29.95 6.50889 29.224 6.75041C29.1365 6.77989 29.0433 6.79229 28.9504 6.78683C28.8574 6.78137 28.7667 6.75817 28.6839 6.71868C28.6013 6.68007 28.5279 6.62648 28.468 6.56109C28.4081 6.49569 28.363 6.41982 28.3352 6.33796C27.6985 4.40504 26.3706 2.73142 24.5708 1.5934C22.771 0.455392 20.6069 -0.0789705 18.4358 0.0785388C16.2646 0.236048 14.2162 1.07601 12.6288 2.45975C11.0414 3.8435 10.0098 5.68828 9.70448 7.68954C9.6905 7.78782 9.65161 7.88163 9.59099 7.96325C9.53038 8.04488 9.44978 8.112 9.3558 8.15911C9.26167 8.20587 9.15722 8.23191 9.05053 8.23521C8.94383 8.23851 8.83774 8.21898 8.74047 8.17814C7.94307 7.82977 7.07159 7.65196 6.19028 7.65782C4.60528 7.64897 3.07773 8.20812 1.92596 9.21877C0.774193 10.2294 0.0870465 11.6136 0.007718 13.0828C-0.0716105 14.5521 0.462998 15.9931 1.50014 17.1055C2.53728 18.2179 3.99694 18.916 5.57496 19.0543C5.77323 19.067 10.9762 19.0797 10.9762 19.0797V14.6378H8.92507C8.79713 14.6372 8.67189 14.6037 8.56327 14.5409C8.45464 14.4782 8.36688 14.3887 8.30974 14.2825C8.25406 14.176 8.2316 14.0571 8.24489 13.9394C8.25818 13.8217 8.30669 13.7097 8.38495 13.6162L13.1708 7.90529C13.2371 7.83226 13.3198 7.77355 13.4131 7.73328C13.5064 7.69301 13.608 7.67214 13.7109 7.67214C13.8138 7.67214 13.9155 7.69301 14.0088 7.73328C14.1021 7.77355 14.1848 7.83226 14.2511 7.90529L19.0369 13.6162C19.1152 13.7097 19.1637 13.8217 19.177 13.9394C19.1903 14.0571 19.1678 14.176 19.1121 14.2825C19.055 14.3887 18.9672 14.4782 18.8586 14.5409C18.75 14.6037 18.6247 14.6372 18.4968 14.6378H16.4457V19.0797H19.7548L17.9567 16.9286C17.8784 16.8351 17.8299 16.7231 17.8166 16.6054C17.8033 16.4876 17.8258 16.3688 17.8815 16.2623C17.9386 16.156 18.0264 16.0666 18.135 16.0039C18.2436 15.9411 18.3689 15.9076 18.4968 15.9069H20.5479V8.29236C20.5479 8.12407 20.6199 7.96267 20.7481 7.84367C20.8764 7.72467 21.0503 7.65782 21.2316 7.65782H25.3338C25.5151 7.65782 25.689 7.72467 25.8172 7.84367C25.9454 7.96267 26.0175 8.12407 26.0175 8.29236V15.9069H28.0686C28.1965 15.9076 28.3217 15.9411 28.4304 16.0039C28.539 16.0666 28.6267 16.156 28.6839 16.2623C28.7396 16.3688 28.762 16.4876 28.7487 16.6054C28.7354 16.7231 28.6869 16.8351 28.6087 16.9286L26.8106 19.0797C26.8106 19.0797 31.9041 19.067 32.1092 19.048C33.8107 18.9136 35.3952 18.1892 36.547 17.0191C37.6988 15.849 38.3332 14.3191 38.324 12.7342Z" fill="white" fill-opacity="0.5"/>
<path d="M30.8048 24.708L23.2227 29.3973L30.8048 34.7783V24.708Z" fill="white" fill-opacity="0.5"/>
<path d="M22.0176 30.1462L21.0741 30.7237C20.5152 31.0752 19.8555 31.2631 19.1803 31.2631C18.5051 31.2631 17.8454 31.0752 17.2864 30.7237L16.3429 30.1462L8.68555 35.578H29.675L22.0176 30.1462Z" fill="white" fill-opacity="0.5"/>
<path d="M7.55859 24.708V34.7783L15.1408 29.3973L7.55859 24.708Z" fill="white" fill-opacity="0.5"/>
</svg>
