<svg height="512" viewBox="0 0 32 32" width="512" xmlns="http://www.w3.org/2000/svg"><g id="world"><path d="m8.2226563 20h-6.6650391c-.3535156-1.2758789-.5576172-2.6132812-.5576172-4s.2041016-2.7241211.5576172-4h6.6650391c-.140625 1.28125-.2226563 2.6152344-.2226563 4s.0820313 2.71875.2226563 4zm13.5429687-8h-11.53125c-.1464844 1.2587891-.234375 2.5908203-.234375 4s.0878906 2.7412109.234375 4h11.53125c.1464844-1.2587891.234375-2.5908203.234375-4s-.0878906-2.7412109-.234375-4zm-11.2392578 10c1.015625 5.5029297 3.3359375 9 5.4736328 9s4.4580078-3.4970703 5.4736328-9zm10.9472656-12c-1.015625-5.5029297-3.3359375-9-5.4736328-9s-4.4580078 3.4970703-5.4736328 9zm2.0214844 12c-.6025391 3.4916992-1.7177734 6.4072266-3.1669922 8.3574219 4.2226563-1.2753906 7.6601563-4.3637696 9.4111328-8.3574219zm6.9472656-2c.3535156-1.2758789.5576172-2.6132812.5576172-4s-.2041016-2.7241211-.5576172-4h-6.6650391c.1406251 1.28125.2226563 2.6152344.2226563 4s-.0820313 2.71875-.2226563 4zm-21.9375-10c.6025391-3.4916992 1.7177734-6.4072266 3.1669922-8.3574219-4.2226562 1.2753907-7.6601562 4.3637696-9.4111328 8.3574219zm0 12h-6.2441406c1.7509766 3.9936523 5.1884766 7.0820313 9.4111328 8.3574219-1.4492187-1.9501953-2.5644531-4.8657227-3.1669922-8.3574219zm14.9902344-12h6.2441406c-1.7509766-3.9936523-5.1884766-7.0820313-9.4111328-8.3574219 1.4492188 1.9501953 2.5644531 4.8657227 3.1669922 8.3574219z"/></g></svg>