<svg width="47" height="47" viewBox="0 0 47 47" fill="none" xmlns="http://www.w3.org/2000/svg">
<g clipPath="url(#clip0_265_567)">
<path d="M39.6572 21.3458C39.5743 20.112 39.2355 18.909 38.6623 17.8132C38.0891 16.7175 37.2942 15.753 36.328 14.9813C35.325 14.1203 34.155 13.4759 32.8913 13.0883C31.6276 12.7008 30.2974 12.5785 28.9843 12.7292C27.9635 10.9967 26.5219 9.54993 24.7932 8.52293C23.0644 7.49593 21.1043 6.92195 19.0947 6.85417C17.4448 6.83486 15.8105 7.17525 14.3055 7.85164C12.8005 8.52804 11.461 9.5242 10.3801 10.7708C8.34369 13.0241 7.22573 15.9588 7.24675 18.9958C5.87706 19.8964 4.71467 21.0781 3.83679 22.4624C2.95891 23.8468 2.38565 25.4021 2.15508 27.025C1.81731 28.8111 1.91698 30.6525 2.44558 32.3917C2.97417 34.131 3.91597 35.7164 5.1905 37.0125C7.51822 39.119 10.5714 40.242 13.7092 40.1458H33.7822C41.3218 40.1458 44.8468 35.1521 45.0426 30.4521C45.1236 28.5757 44.6577 26.7161 43.7017 25.0995C42.7456 23.4829 41.3405 22.1788 39.6572 21.3458ZM19.5842 24.2833V31.3333C19.5842 31.8527 19.3779 32.3508 19.0107 32.7181C18.6434 33.0854 18.1453 33.2917 17.6259 33.2917C17.1065 33.2917 16.6084 33.0854 16.2412 32.7181C15.8739 32.3508 15.6676 31.8527 15.6676 31.3333V24.2833L14.1009 25.85C13.9031 26.0641 13.66 26.2313 13.3894 26.3394C13.1188 26.4476 12.8274 26.494 12.5366 26.4752C12.2457 26.4564 11.9627 26.373 11.7082 26.231C11.4537 26.0889 11.2342 25.8919 11.0655 25.6542C10.8051 25.2391 10.7014 24.7447 10.7732 24.26C10.8451 23.7753 11.0876 23.3322 11.4572 23.0104L16.2551 18.2125C16.4294 18.0226 16.6412 17.8709 16.8772 17.7672C17.1132 17.6634 17.3681 17.6099 17.6259 17.6099C17.8837 17.6099 18.1387 17.6634 18.3746 17.7672C18.6106 17.8709 18.8225 18.0226 18.9967 18.2125L23.7947 23.0104C24.1642 23.3322 24.4068 23.7753 24.4786 24.26C24.5504 24.7447 24.4468 25.2391 24.1863 25.6542C24.0177 25.8919 23.7981 26.0889 23.5436 26.231C23.2891 26.373 23.0061 26.4564 22.7153 26.4752C22.4244 26.494 22.1331 26.4476 21.8624 26.3394C21.5918 26.2313 21.3487 26.0641 21.1509 25.85L19.5842 24.2833ZM35.5447 30.8438L30.7467 35.6417C30.5725 35.8316 30.3606 35.9833 30.1246 36.087C29.8887 36.1908 29.6337 36.2443 29.3759 36.2443C29.1181 36.2443 28.8632 36.1908 28.6272 36.087C28.3912 35.9833 28.1794 35.8316 28.0051 35.6417L23.2072 30.8438C22.8538 30.5115 22.6229 30.0698 22.5518 29.59C22.4807 29.1102 22.5736 28.6204 22.8155 28.2C22.9842 27.9623 23.2037 27.7653 23.4582 27.6232C23.7127 27.4812 23.9957 27.3977 24.2866 27.379C24.5774 27.3602 24.8688 27.4066 25.1394 27.5148C25.41 27.6229 25.6531 27.7901 25.8509 28.0042L27.4176 29.5708V22.5208C27.4176 22.0015 27.6239 21.5033 27.9912 21.1361C28.3584 20.7688 28.8565 20.5625 29.3759 20.5625C29.8953 20.5625 30.3934 20.7688 30.7607 21.1361C31.1279 21.5033 31.3342 22.0015 31.3342 22.5208V29.5708L32.9009 28.0042C33.0987 27.7901 33.3418 27.6229 33.6124 27.5148C33.8831 27.4066 34.1744 27.3602 34.4653 27.379C34.7561 27.3977 35.0391 27.4812 35.2936 27.6232C35.5481 27.7653 35.7677 27.9623 35.9363 28.2C36.1782 28.6204 36.2711 29.1102 36.2001 29.59C36.129 30.0698 35.8981 30.5115 35.5447 30.8438Z" fill="white" fill-opacity="0.5"/>
</g>
<defs>
<clipPath id="clip0_265_567">
<rect width="47" height="47" fill="white"/>
</clipPath>
</defs>
</svg>
