<svg width="31" height="30" viewBox="0 0 31 30" fill="none" xmlns="http://www.w3.org/2000/svg">
<path fillRule="evenodd" clipRule="evenodd" d="M0.289062 24.6938V5.7839C0.289062 2.98659 2.47383 0.71875 5.16868 0.71875H25.9884C28.6832 0.71875 30.868 2.98659 30.868 5.7839V24.6938C30.868 27.4911 28.6832 29.759 25.9884 29.759H5.16868C3.87395 29.759 2.63388 29.2254 1.71781 28.2759C0.803049 27.325 0.289062 26.0378 0.289062 24.6938ZM2.24091 10.8491V24.6938C2.24091 25.5002 2.5493 26.2728 3.09842 26.8428C3.64754 27.4128 4.39184 27.7329 5.16868 27.7329H25.9884C27.6058 27.7329 28.9162 26.3727 28.9162 24.6938V10.8491H2.24091ZM14.2773 4.43319C13.559 4.43319 12.9761 5.03831 12.9761 5.7839C12.9761 6.52949 13.559 7.13461 14.2773 7.13461C14.9956 7.13461 15.5785 6.52949 15.5785 5.7839C15.5785 5.03831 14.9956 4.43319 14.2773 4.43319ZM10.3736 4.43319C9.65532 4.43319 9.07237 5.03831 9.07237 5.7839C9.07237 6.52949 9.65532 7.13461 10.3736 7.13461C11.0919 7.13461 11.6748 6.52949 11.6748 5.7839C11.6748 5.03831 11.0919 4.43319 10.3736 4.43319ZM6.46991 4.43319C5.75163 4.43319 5.16868 5.03831 5.16868 5.7839C5.16868 6.52949 5.75163 7.13461 6.46991 7.13461C7.18819 7.13461 7.77114 6.52949 7.77114 5.7839C7.77114 5.03831 7.18819 4.43319 6.46991 4.43319Z" fill="white" fill-opacity="0.5"/>
<path d="M7.43063 13.4286V16.247C7.43063 16.5289 7.49997 16.7458 7.63865 16.898C7.77734 17.0501 7.98089 17.1261 8.24931 17.1261C8.51773 17.1261 8.72352 17.0501 8.86668 16.898C9.00984 16.7458 9.08142 16.5289 9.08142 16.247V13.4286H10.2289V16.2403C10.2289 16.6608 10.1394 17.0165 9.9605 17.3073C9.78155 17.5981 9.53997 17.8173 9.23576 17.9649C8.93602 18.1126 8.6005 18.1864 8.22918 18.1864C7.85786 18.1864 7.52457 18.1148 7.22931 17.9716C6.93852 17.824 6.70812 17.6048 6.53812 17.314C6.36812 17.0187 6.28312 16.6608 6.28312 16.2403V13.4286H7.43063ZM12.3835 13.4286V18.1394H11.236V13.4286H12.3835ZM15.9731 11.7644L14.1747 19.3943H13.0675L14.8659 11.7644H15.9731ZM17.7858 13.4286V16.247C17.7858 16.5289 17.8552 16.7458 17.9939 16.898C18.1325 17.0501 18.3361 17.1261 18.6045 17.1261C18.8729 17.1261 19.0787 17.0501 19.2219 16.898C19.365 16.7458 19.4366 16.5289 19.4366 16.247V13.4286H20.5841V16.2403C20.5841 16.6608 20.4947 17.0165 20.3157 17.3073C20.1368 17.5981 19.8952 17.8173 19.591 17.9649C19.2912 18.1126 18.9557 18.1864 18.5844 18.1864C18.2131 18.1864 17.8798 18.1148 17.5845 17.9716C17.2937 17.824 17.0633 17.6048 16.8933 17.314C16.7233 17.0187 16.6383 16.6608 16.6383 16.2403V13.4286H17.7858ZM24.4768 18.1394L23.5172 16.6966L22.6716 18.1394H21.3698L22.8797 15.7437L21.3362 13.4286H22.6716L23.6178 14.8512L24.4499 13.4286H25.7518L24.2553 15.8041L25.8122 18.1394H24.4768Z" fill="white" fill-opacity="0.5"/>
</svg>
