<svg width="38" height="32" viewBox="0 0 38 32" fill="none" xmlns="http://www.w3.org/2000/svg">
<path d="M21.3703 4.84619H11.9375V7.20765H21.3703V4.84619Z" fill="white" fill-opacity="0.5"/>
<path d="M24.6144 8.31458H15.1816V10.676H24.6144V8.31458Z" fill="white" fill-opacity="0.5"/>
<path d="M21.3703 11.783H11.9375V14.1444H21.3703V11.783Z" fill="white" fill-opacity="0.5"/>
<path d="M24.6144 15.2513H15.1816V17.6133H24.6144V15.2513Z" fill="white" fill-opacity="0.5"/>
<path d="M21.3703 18.7192H11.9375V21.0807H21.3703V18.7192Z" fill="white" fill-opacity="0.5"/>
<path d="M1.76866 25.3158H15.9178V29.3988H10.5382V31.7603H27.1929V29.3988H21.8133V25.3158H35.9625C36.9353 25.3158 37.7311 24.5188 37.7311 23.5447V2.4884C37.7311 1.51428 36.9353 0.717285 35.9625 0.717285H1.76866C0.795895 0.717285 0 1.51428 0 2.4884V23.5448C0 24.5188 0.795895 25.3158 1.76866 25.3158ZM2.35819 3.07875H35.3729V22.9543H2.35819V3.07875Z" fill="white" fill-opacity="0.5"/>
</svg>
